<svg width="211.67mm" height="211.67mm" version="1.1" viewBox="0 0 211.67 211.67" xmlns="http://www.w3.org/2000/svg"><g transform="translate(13.712 -75.83)"><g transform="matrix(.26458 0 0 .26458 -40.108 1.8405)"><path d="m987.78 886.67c-36.413 35.455-71.021 72.976-108.61 107.08-27.467 18.431-53.053-5.1833-70.403-25.054l-308.76-309.81-328.89 330c-25.001 24.825-56.555 3.3078-74.134-18.379-29.862-30.236-61.193-59.12-90.102-90.232-20.072-27.606 6.0709-52.708 25.506-70.436l439.84-439.84c24.988-24.813 56.61-3.3625 74.034 18.479l441.52 441.52c16.603 14.816 15.627 41.529 0 56.667z"/></g></g></svg>
