<svg width="211.67mm" height="211.67mm" version="1.1" viewBox="0 0 211.67 211.67" xmlns="http://www.w3.org/2000/svg"><g transform="translate(13.712 -75.83)"><g transform="matrix(.26458 0 0 .26458 -40.168 22.914)"><path d="m500 200c-222.27 0-402.45 180.18-402.45 402.45 0 200.87 147.17 367.36 339.56 397.55v-281.22h-102.19v-116.33h102.19v-88.664c0-100.86 60.082-156.58 152.01-156.58 44.033 0 90.088 7.8592 90.088 7.8592v99.039h-50.747c-49.994 0-65.584 31.02-65.584 62.848v75.494h111.61l-17.844 116.33h-93.771v281.22c192.4-30.189 339.56-196.68 339.56-397.55 0-222.26-180.18-402.45-402.44-402.45z"/></g></g></svg>
