<svg width="211.67mm" height="211.67mm" version="1.1" viewBox="0 0 211.67 211.67" xmlns="http://www.w3.org/2000/svg"><g transform="translate(13.712 -75.83)"><path d="m173.34 121.77c7.2878 7.1607 8.4415 17.672 7.9021 27.347-0.0325 42.152 0.0649 84.306-0.0487 126.46-0.40516 8.4883-9.4495 10.882-16.45 10.059-50.551-0.0346-101.1 0.0693-151.65-0.052-8.0711-0.55864-10.914-9.2174-10.059-16.107 0.03463-60.576-0.06929-121.16 0.05196-181.73 0.55869-8.0711 9.2175-10.914 16.107-10.059 33.797 0.09425 67.608-0.1892 101.4 0.14296 9.2833 0.80068 16.407 6.9952 22.38 13.569 10.124 10.125 20.249 20.249 30.373 30.373zm-51.571-28.281v43.669h43.669c-2.2525-6.4606-8.6385-10.171-12.952-15.24-9.3129-9.0189-18.094-18.693-27.753-27.285l-1.3387-0.59786zm44.709 177.38v-118.95c-16.84-0.13621-33.711 0.27406-50.531-0.20794-7.9112-1.42-9.5991-10.064-8.9418-16.838v-42.427h-89.21v178.42z" stroke-width=".26458"/></g></svg>
