<svg width="211.67mm" height="211.67mm" version="1.1" viewBox="0 0 211.67 211.67" xmlns="http://www.w3.org/2000/svg"><g transform="translate(13.712 -75.83)"><g transform="matrix(.26458 0 0 .26458 -40.154 21.051)"><path d="m806.91 380.68c27.545 27.064 31.904 66.791 29.866 103.36-0.12267 159.31 0.24542 318.64-0.1842 477.94-1.531 32.082-35.715 41.128-62.172 38.02-191.06-0.13089-382.13 0.2618-573.18-0.19648-30.505-2.1118-41.25-34.838-38.02-60.876 0.13094-228.95-0.26191-457.91 0.19649-686.85 2.1118-30.505 34.838-41.25 60.876-38.02 127.74 0.35623 255.53-0.71508 383.23 0.54033 35.086 3.0264 62.013 26.438 84.587 51.283l114.8 114.8zm-194.91-106.89v165.05h165.05c-8.5137-24.418-32.65-38.44-48.955-57.6-35.198-34.087-68.386-70.651-104.89-103.13l-5.0594-2.2596zm168.98 670.41v-449.56c-63.647-0.51485-127.41 1.0358-190.98-0.78595-29.901-5.3666-36.28-38.037-33.795-63.641v-160.35h-337.17v674.34h561.95zm-515.58-392.97v46.371c10.642 2.9889 31.681-7.3282 32.655 8.0346 23.435 93.993 46.869 187.99 70.304 281.98h69.163c19.871-75.785 40.752-151.38 59.978-227.29 3.9249-36.992 5.184 12.134 11.058 24.298 17.977 67.662 35.953 135.32 53.93 202.99h69.949c23.84-96.671 47.681-193.34 71.521-290.01 9.897-3.0804 33.507 7.5526 30.652-8.2806v-38.09h-131.25v46.371h39.297c-15.135 68.979-31.629 137.71-45.88 206.85-2.1558 33.526-6.559-8.1738-9.9496-20.295-20.687-77.642-41.375-155.28-62.062-232.93h-49.514c-21.317 81.734-44.38 163.1-64.606 245.07-0.65994 21.784-7.8787 29.057-7.8975 3.0966-13.748-67.522-30.472-134.49-45.388-201.79h39.297v-46.371h-131.25z"/></g></g></svg>
