<svg width="211.67mm" height="211.67mm" version="1.1" viewBox="0 0 211.67 211.67" xmlns="http://www.w3.org/2000/svg"><g transform="translate(13.712 -75.83)"><path d="m173.34 121.77c7.2878 7.1607 8.4415 17.672 7.902 27.347-0.0324 42.152 0.065 84.306-0.0487 126.46-0.40516 8.4882-9.4495 10.882-16.45 10.059-50.551-0.0346-101.1 0.0693-151.65-0.052-8.0712-0.55863-10.914-9.2174-10.059-16.107 0.03466-60.576-0.069294-121.16 0.051991-181.73 0.55867-8.0711 9.2174-10.914 16.107-10.059 33.797 0.09425 67.608-0.1892 101.4 0.14296 9.2833 0.80067 16.407 6.9952 22.38 13.569 10.124 10.124 20.249 20.249 30.373 30.373zm-51.571-28.281v43.669h43.669c-2.2525-6.4606-8.6385-10.171-12.953-15.24-9.3129-9.0189-18.094-18.693-27.753-27.285l-1.3387-0.59786zm44.709 177.38v-118.95c-16.84-0.13623-33.711 0.27406-50.531-0.20796-7.9112-1.4199-9.5991-10.064-8.9418-16.838v-42.427h-89.21v178.42h148.68zm-59.681-68.831c7.7526 9.0285 18.898 4.9194 29.209 5.812 9.364-1.9294 22.278 9.0624 10.999 15.824-11.489 2.1295-22.884-3.0768-33.138-7.7038-15.444 1.6432-30.825 4.5212-45.541 9.5656-6.9999 10.87-13.294 23.872-25.36 29.886-5.9603 2.2187-13.969-3.9577-8.7761-10.121 5.0293-8.1974 13.21-14.747 21.919-18.465 5.8112-0.37716 9.4732-15.36 13.881-21.471 4.3601-10.488 11.434-21.399 11.414-32.742-2.4274-10.657-5.0864-22.258-1.2899-32.891 5.6374-7.2693 15.82 1.2395 11.294 8.9194-0.0026 8.5958-0.24519 17.236-1.6636 25.73 3.5485 10.285 8.5495 20.563 17.052 27.657zm-66.751 47.62c7.1373-4.1222 11.319-11.664 15.804-18.299-6.4343 4.9041-12.143 11.038-15.804 18.299zm46.164-106.68c-2.2958 4.8785-0.36452 22.214 0.62389 8.7338 0.97028-3.2275 1.5666-7.5087-0.62389-8.7338zm-14.556 76.525c9.1126-4.9148 27.183-6.6738 31.608-10.397-7.2135-5.8892-12.847-13.553-16.636-22.042-3.6568 11.363-8.8296 22.218-14.972 32.44zm75.069-1.8715c-3.8091-3.437-23.801-3.6168-10.108-0.67582 2.99 0.68281 8.0972 2.1448 10.108 0.67582z" stroke-width=".26458"/></g></svg>
