<svg width="211.67mm" height="211.67mm" version="1.1" viewBox="0 0 211.67 211.67" xmlns="http://www.w3.org/2000/svg"><g transform="translate(13.712 -75.83)"><path d="m77.269 122.19v-14.764h-14.764v14.764h14.764zm14.972 14.972v-14.972h-14.972v14.972h14.972zm-14.972 14.764v-14.764h-14.764v14.764h14.764zm14.972 14.972v-14.972h-14.972v14.972h14.972zm81.1-45.125c7.2877 7.1607 8.4416 17.672 7.9021 27.347-0.0325 42.152 0.0649 84.306-0.0487 126.46-0.40534 8.4882-9.4495 10.882-16.45 10.059-50.551-0.0346-101.1 0.0693-151.65-0.052-8.0711-0.55877-10.914-9.2174-10.059-16.107 0.03463-60.576-0.06929-121.16 0.05199-181.73 0.55868-8.071 9.2173-10.914 16.107-10.059 33.797 0.09425 67.608-0.1892 101.4 0.14296 9.2832 0.80076 16.408 6.9951 22.381 13.569 10.124 10.124 20.249 20.249 30.373 30.373zm-51.571-28.281v43.669h43.669c-2.2524-6.4606-8.6385-10.171-12.952-15.24-9.3129-9.0189-18.094-18.693-27.753-27.285l-1.3387-0.59788zm44.709 177.38v-118.95c-16.84-0.13624-33.712 0.27405-50.532-0.20797-7.9112-1.42-9.599-10.064-8.9417-16.838v-42.427h-14.764v14.972h-14.972v-14.972h-59.473v178.42h148.68zm-72.782-83.803c4.284 14.56 9.3061 28.935 13.101 43.617 2.3684 13.502-10.875 24.04-23.277 24.902-13.1 1.6549-30.14-2.1745-34.977-16.086-3.205-9.79 3.269-19.08 5.2033-28.478 2.7631-10.352 6.8328-20.522 8.7576-31.005v-13.121h14.764v14.764c5.7492 0.46011 14.243-2.0881 16.428 5.4066zm-16.428 54.066c8.0567 2.1396 22.079-8.2925 9.4844-13.221-7.816-2.9146-20.521-3.1621-24.249 5.7348 1.1591 6.1416 9.5973 7.2645 14.764 7.4861z" stroke-width=".26458"/></g></svg>
