<svg width="211.67mm" height="211.67mm" version="1.1" viewBox="0 0 211.67 211.67" xmlns="http://www.w3.org/2000/svg"><g transform="translate(13.712 -75.83)"><g transform="matrix(.26458 0 0 .26458 -40.154 21.051)"><path d="m806.91 380.68c27.544 27.064 31.904 66.792 29.865 103.36-0.12267 159.31 0.24543 318.64-0.1842 477.94-1.5312 32.081-35.714 41.128-62.172 38.02-191.06-0.13089-382.13 0.2618-573.18-0.19648-30.505-2.1117-41.25-34.838-38.02-60.876 0.13094-228.95-0.26191-457.91 0.19649-686.85 2.1118-30.505 34.838-41.25 60.876-38.02 127.74 0.35623 255.53-0.71508 383.23 0.54033 35.086 3.0263 62.013 26.438 84.587 51.283l114.8 114.8zm-194.91-106.89v165.05h165.05c-8.513-24.418-32.65-38.44-48.954-57.6-35.198-34.087-68.386-70.651-104.89-103.13l-5.0594-2.2596zm168.98 670.41v-449.56c-63.647-0.51484-127.41 1.0358-190.98-0.78595-29.901-5.3667-36.28-38.037-33.796-63.641v-160.35h-337.17v674.34h561.95zm-429.91-102.96v46.371h123.39v-46.371c-8.401-2.5475-36.519 5.6549-29.646-5.2203 17.58-26.685 34.531-54.776 52.438-80.448 17.927 28.988 37.938 56.985 56.588 85.668-10.006 2.639-30.666-5.3749-33.796 4.1403v42.23h128.11v-46.371c-11.395-2.5445-28.665 6.2324-34.632-6.7712-26.443-37.564-52.886-75.128-79.329-112.69 28.294-41.393 56.588-82.786 84.882-124.18 9.6038-3.1118 33.053 7.6217 29.866-8.2806v-38.09h-122.61v46.371c8.0061 2.6287 36.205-5.7893 28.874 5.2298-17.332 26.133-33.364 54.118-51.667 78.866-18.564-28-37.249-56.034-55.802-84.096 10.043-3.0307 32.874 6.7275 33.01-6.2105v-40.16h-127.32v46.371c11.384 2.5524 28.693-6.2517 34.602 6.7921 26.191 37.557 52.382 75.114 78.573 112.67-28.556 41.393-57.112 82.786-85.668 124.18h-29.866z"/></g></g></svg>
