<svg width="211.67mm" height="211.67mm" version="1.1" viewBox="0 0 211.67 211.67" xmlns="http://www.w3.org/2000/svg"><g transform="translate(13.712 -75.83)"><g transform="matrix(.26458 0 0 .26458 -40.169 21.054)"><path d="m693.34 717.06 199.63 200.42-82.524 82.524-199.63-199.63q-83.31 56.588-182.34 56.588-132.82 0-227.14-94.313-94.314-94.313-94.314-227.14t94.314-227.14q94.313-94.314 227.14-94.314 132.82 0 227.14 94.314 94.312 94.313 94.312 227.14 0 99.815-56.588 181.55zm-51.086-181.55q0-88.812-62.09-151.69-62.091-62.876-151.69-62.876-89.598 0-151.69 62.876-62.089 62.876-62.875 151.69-0.78692 88.812 62.875 150.9 63.661 62.09 151.69 62.876 88.026 0.7859 151.69-62.876 63.662-63.662 62.09-150.9z"/></g></g></svg>
