<svg width="211.67mm" height="211.67mm" version="1.1" viewBox="0 0 211.67 211.67" xmlns="http://www.w3.org/2000/svg"><g transform="translate(13.712 -75.83)"><g transform="matrix(.26458 0 0 .26458 -40.17 22.913)"><path d="m500 200c-108.64 0-122.26 0.43072-164.93 2.3867-42.578 1.9556-71.649 8.7322-97.094 18.621a196.07 196.07 0 0 0-70.832 46.137 196.22 196.22 0 0 0-46.137 70.832c-9.8889 25.444-16.688 54.537-18.621 97.137-1.9333 42.644-2.3867 56.22-2.3867 164.89s0.43117 122.26 2.3867 164.93c1.9556 42.578 8.7322 71.649 18.621 97.094a196.07 196.07 0 0 0 46.137 70.832c22.222 22.222 44.543 35.914 70.832 46.137 25.444 9.8889 54.516 16.688 97.094 18.621 42.667 1.9333 56.285 2.3867 164.93 2.3867s122.26-0.43072 164.93-2.3867c42.578-1.9556 71.649-8.7322 97.094-18.621a196.09 196.09 0 0 0 70.832-46.137c22.222-22.222 35.914-44.543 46.137-70.832 9.8889-25.444 16.688-54.516 18.621-97.094 1.9333-42.666 2.3867-56.285 2.3867-164.93s-0.43112-122.26-2.3867-164.93c-1.9556-42.578-8.7322-71.647-18.621-97.092a196.09 196.09 0 0 0-46.137-70.832 196.22 196.22 0 0 0-70.832-46.137c-25.444-9.8889-54.537-16.688-97.137-18.621-42.644-1.9333-56.22-2.3867-164.89-2.3867zm218.23 142.1a48.6 48.6 0 0 1 47.18 48.566 48.6 48.6 0 1 1-97.18 0 48.6 48.6 0 0 1 50-48.566zm-218.23 52.299a205.6 205.6 0 0 1 0 411.2 205.6 205.6 0 1 1 0-411.2zm0 72.137a133.47 133.47 0 0 0 0 266.93 133.47 133.47 0 0 0 0-266.93z" fill-rule="evenodd"/></g></g></svg>
