<svg width="211.67mm" height="211.67mm" version="1.1" viewBox="0 0 211.67 211.67" xmlns="http://www.w3.org/2000/svg"><g transform="translate(13.712 -75.83)"><path d="m127.31 109.5c-5.6921-0.15506-4.8626 8.6571-4.792 13.214v12.473c-29.363 0.56169-56.681 19.196-69.598 45.311-7.2622 13.334-11.089 28.458-10.329 43.669l0.00155 0.00206c15.092-28.188 47.9-46.511 79.926-41.731 0.31375 8.9298-0.68257 17.996 0.6072 26.827 3.1808 7.0603 9.662 0.02214 13.576-2.5823 19.181-14.175 38.665-27.99 57.656-42.391 3.893-4.8116-1.8011-8.6138-5.4229-10.947-19.901-14.469-39.64-29.17-59.642-43.494-0.73649-0.22261-1.395-0.33432-1.9839-0.35036zm-139.3 9.1142c-0.86117 0-1.5544 0.69326-1.5544 1.5544v165.77c0 0.86117 0.69326 1.5544 1.5544 1.5544h1.9187 34.197 131.57c0.86117 0 1.5544-0.69325 1.5544-1.5544v-36.116c0-0.86116-0.69325-1.5544-1.5544-1.5544h-130.02v-128.1c0-0.86117-0.69326-1.5544-1.5544-1.5544h-36.116z" stroke-width=".23261"/></g></svg>
