<svg width="211.67mm" height="211.67mm" version="1.1" viewBox="0 0 211.67 211.67" xmlns="http://www.w3.org/2000/svg"><g transform="translate(13.712 -106.67)"><path d="m181.33 287.5h-178.42c-9.8811 0-17.93-8.2779-17.93-18.519v-112.95c0-10.208 8.0488-18.519 17.93-18.519h178.42c9.9138 0 17.93 8.3106 17.93 18.519v112.95c0 10.241-8.0161 18.519-17.93 18.519zm-4.7442-13.251-55.753-51.14-9.1613 8.2779c-5.3332 4.777-11.844 7.2636-19.566 7.2636-7.6889 0-14.233-2.4539-19.533-7.2636l-9.1286-8.2779-55.786 51.14zm-178.25-111.44v102.05l55.557-51.729zm8.8668-12.041 71.164 65.143c6.2166 5.7258 10.797 8.5724 13.775 8.5724 2.9774 0 7.5581-2.8466 13.775-8.5724l71.164-65.143zm178.71 12.041-55.557 50.322 55.557 51.729z" stroke-width=".32719"/></g></svg>
