<svg width="211.67mm" height="211.67mm" version="1.1" viewBox="0 0 211.67 211.67" xmlns="http://www.w3.org/2000/svg"><path d="m193.96 175.83h-176.25c-9.7607 0-17.712-8.1771-17.712-18.293v-111.57c0-10.084 7.9508-18.293 17.712-18.293h176.25c9.793 0 17.712 8.2094 17.712 18.293v111.57c0 10.116-7.9185 18.293-17.712 18.293zm-4.6864-13.09-55.074-50.517-9.0497 8.1771c-5.2682 4.7188-11.7 7.1751-19.328 7.1751-7.5953 0-14.06-2.424-19.295-7.1751l-9.0174-8.1771-55.107 50.517zm-176.08-110.08v100.81l54.88-51.099zm8.7588-11.894 70.297 64.35c6.1409 5.6561 10.665 8.468 13.607 8.468 2.9411 0 7.466-2.8119 13.607-8.468l70.297-64.35zm176.53 11.894-54.88 49.709 54.88 51.099z" stroke-width=".3232"/></svg>
