<svg width="211.67mm" height="211.67mm" version="1.1" viewBox="0 0 211.67 211.67" xmlns="http://www.w3.org/2000/svg"><g transform="translate(13.712 -75.83)"><path d="m126.92 147.07c0.75006-20.452-19.759-38.05-39.875-34.3-18.983 2.3624-33.129 22.508-28.804 41.192 3.3466 18.841 24.078 31.962 42.557 26.772 14.915-3.6465 26.555-18.184 26.123-33.664zm34.416 0c0.51617 11.234-2.7439 22.108-7.9745 31.923-15.41 32.682-30.65 65.451-46.167 98.079-5.3147 9.5456-19.478 11.477-27.186 3.7263-4.6569-5.775-6.8169-13.165-10.296-19.698-14.439-30.762-29.168-61.397-43.425-92.24-8.3119-24.849-1.3121-54.318 18.299-72 24.161-24.526 67.355-25.599 92.745-2.3858 15.311 12.934 24.593 32.46 24.006 52.596z" stroke-width=".26458"/></g></svg>
