<svg id="icon-max" width="211.67" height="211.67" version="1.1" viewBox="0 0 211.67 211.67" xmlns="http://www.w3.org/2000/svg"><path d="m105.84 0a105.84 105.84 0 0 0-105.84 105.84 105.84 105.84 0 0 0 105.84 105.83 105.84 105.84 0 0 0 105.83-105.83 105.84 105.84 0 0 0-105.83-105.84zm1.2168 31.154c41.371 0 73.781 33.562 73.781 74.9 0.14242 40.695-32.696 73.824-73.391 74.037l0.00781-0.00196c-14.721 0-21.563-2.1496-33.455-10.746-7.5219 9.6707-31.34 17.229-32.379 4.2988 0-9.7068-2.1503-17.91-4.5859-26.865-2.9013-11.032-6.1953-23.317-6.1953-41.119 0-42.517 34.886-74.504 76.217-74.504zm-2.7129 36.73c-18.323 0.75508-32.314 14.281-35.572 34.766-2.8655 18.088 2.2208 40.118 6.5547 41.264 2.0776 0.50209 7.3072-3.7268 10.566-6.9863 5.3897 3.7234 11.666 5.9607 18.195 6.4844 20.858 1.0028 38.682-14.876 40.082-35.711 0.81512-20.879-15.245-38.565-36.105-39.76v-0.035156c-1.2582-0.064902-2.4991-0.071823-3.7207-0.021484z" stroke-width="1.1554"/></svg>
