<svg id="icon-max" width="211.67" height="211.67" version="1.1" viewBox="0 0 211.67 211.67" xmlns="http://www.w3.org/2000/svg"><path d="m108.11 210.61c-20.773 0-30.427-3.0327-47.207-15.163-10.614 13.646-44.225 24.31-45.691 6.0653 0-13.697-3.0325-25.272-6.4694-37.908-4.094-15.567-8.7441-32.903-8.7441-58.023 0-59.995 49.229-105.13 107.55-105.13 58.377 0 104.11 47.359 104.11 105.69 0.20097 57.423-46.137 104.17-103.56 104.47zm0.85908-158.3c-28.406-1.4653-50.542 18.195-55.446 49.027-4.0434 25.524 3.1337 56.608 9.2492 58.225 2.9316 0.70849 10.311-5.2566 14.91-9.8561 7.6053 5.254 16.462 8.4095 25.676 9.1484 29.432 1.415 54.582-20.991 56.558-50.39 1.1502-29.462-21.511-54.418-50.946-56.104z" stroke-width="19.997"/></svg>
