<svg width="211.67mm" height="211.67mm" version="1.1" viewBox="0 0 211.67 211.67" xmlns="http://www.w3.org/2000/svg"><g transform="translate(13.712 -75.83)"><path d="m92.122 75.83a105.83 105.83 0 0 0-105.83 105.83 105.83 105.83 0 0 0 105.83 105.83 105.83 105.83 0 0 0 105.83-105.83 105.83 105.83 0 0 0-105.83-105.83zm0.0087 49.138c16.137 0 29.262 13.125 29.262 29.277 0 16.123-13.125 29.248-29.262 29.248-16.136 0-29.262-13.125-29.262-29.262 0-16.137 13.125-29.262 29.262-29.262zm0 17.157c-6.6734 0-12.121 5.4332-12.121 12.121 0 6.6741 5.4478 12.107 12.121 12.107 6.688 0 12.121-5.4333 12.121-12.107 0-6.688-5.4332-12.121-12.121-12.121zm-24.139 42.355c1.5168 0.023 3.0472 0.44985 4.4276 1.3178 11.989 7.5294 27.417 7.5447 39.405 0 4.0159-2.5249 9.3008-1.3147 11.826 2.7011 2.5248 4.0159 1.314 9.302-2.6867 11.826-5.285 3.3216-11.028 5.6841-16.992 7.0425l16.358 16.358c3.351 3.3371 3.351 8.7708 0 12.122-3.3516 3.3516-8.7702 3.3516-12.121 0l-16.078-16.078-16.078 16.078c-1.6835 1.6689-3.8681 2.5099-6.0678 2.5099-2.1851 0-4.3704-0.84105-6.0539-2.5099-3.351-3.3517-3.351-8.7701 0-12.122l16.344-16.358c-5.9648-1.3583-11.707-3.7207-16.993-7.0425-4.0006-2.5249-5.2115-7.8249-2.6867-11.826 1.6569-2.6354 4.5024-4.0627 7.398-4.0189z" stroke-width="3.4139"/></g></svg>
