<svg width="211.67mm" height="211.67mm" version="1.1" viewBox="0 0 211.67 211.67" xmlns="http://www.w3.org/2000/svg"><g transform="translate(13.712 -75.83)"><g transform="matrix(.26458 0 0 .26458 -40.17 21.033)"><path d="m827.01 864.43c1.5648 60.258-38.347 130.57-103.44 135.41-149.04 0.2618-298.1 0.2627-447.14 0-65.097-4.8458-105.01-75.153-103.44-135.41 1.0802-74.882 7.677-153.9 45.699-220.11 25.667-41.534 71.29-74.127 121.93-70.26 77.221 81.666 217.11 88.207 302.35 15.458 19.843-27.653 56.868-11.244 82.223-0.16107 56.661 29.482 77.811 95.641 92.204 153.48 8.2452 39.908 9.1857 80.99 9.6177 121.6zm-130.99-453.42c3.3551 102.71-87.807 197.24-190.9 195.97-89.725 5.625-173.63-61.858-194.73-147.82-18.571-67.619 1.7992-144.39 55.025-190.98 63.66-65.101 173.46-71.404 246.48-18.567 53.48 35.354 89.056 96.262 84.117 161.41z"/></g></g></svg>
