<svg width="800" height="800" version="1.1" viewBox="0 0 800 800" xmlns="http://www.w3.org/2000/svg"><path d="m740.52 597.18c-3.2872 37.637-12.545 80.761-47.533 101.69-51.336 39.309-121.77 53.225-182.8 29.482-66.509-21.269-132.64-47.228-187.68-91.353-99.459-78.274-192.95-174.73-233-297.6-17.085-45.766-37.455-93.771-27.445-143.75 8.7428-42.442 29.517-83.982 61.491-113.59 27.539-14.172 64.072-29.693 94.262-17.867 24.569 31.58 37.008 70.739 60.314 103.3 20.046 27.398 45.823 67.179 4.6158 89.975-20.539 22.248-58.224 36.891-62.226 69.209 8.2158 28.243 28.372 50.864 42.248 76.432 48.831 77.079 122.89 135.07 204 175.01 34.388 5.9043 49.604-37.856 72.118-56.96 18.268-35.456 57.455-32.246 82.029-5.3362 37.04 21.365 75.061 41.201 111.54 63.364 5.787 3.9956 8.6 11.087 8.0677 17.989z" stroke-width="1.0074"/></svg>
