<svg width="211.67mm" height="211.67mm" version="1.1" viewBox="0 0 211.67 211.67" xmlns="http://www.w3.org/2000/svg"><g transform="translate(13.712 -75.83)"><path d="m62.191 77.51c-12.405 3e-3 -14.339 0.72877-14.528 11.402v174.68c0.21638 20.094 0.21706 20.984 16.62 21.952 32.859 0.19672 65.727 0.0282 98.589 0.0842 22.641 0.22694 33.371-8.6049 33.129-26.724 0.31612-27.974 0.0472-58.207 0.13643-87.308-0.13824-19.529-0.3432-30.656-14.764-30.491v-13.042c1.4626-20.238-21.44-44.493-42.279-50.24-27.09-0.0851-53.51-0.26884-76.904-0.31626zm72.61 14.797c0.97079 30.228 0.77775 30.438 31.6 29.877v29.737h-103.97v-59.614s48.54-0.38124 72.374 0zm-128.05 29.679c-9.2608 0.127-17.861 7.4956-18.477 17.023-0.19672 37.604-0.0282 75.216-0.08424 112.82 0.68426 9.0605-2.2677 19.408 4.0938 27.006 6.1953 8.2542 16.859 6.6999 25.857 6.7939 10.285 1.4653 21.264-5.8227 21.952-16.62 0.1968-41.524 0.02868-83.056 0.08477-124.58 1.6809-11.016-6.8553-22.731-18.507-22.245-4.8909 0.30933-10.243-0.24855-14.918-0.19894zm93.146 43.591h29.213v29.213h-29.213zm-37.574 0.35605h29.213v29.213h-29.213zm75.148 0h29.213v29.213h-29.213zm-37.574 37.635h29.213v29.213h-29.213zm-37.574 0.35605h29.213v29.213h-29.213zm75.148 0h29.213v29.213h-29.213zm-37.574 37.635h29.213v29.213h-29.213zm-37.574 0.35605h29.213v29.213h-29.213zm75.148 0h29.213v29.213h-29.213z" stroke-width=".26458"/></g></svg>
