<svg width="211.67mm" height="211.67mm" version="1.1" viewBox="0 0 211.67 211.67" xmlns="http://www.w3.org/2000/svg"><g transform="translate(13.712 -75.83)"><path d="m181.56 233.45c-0.86334 9.885-3.2948 21.211-12.484 26.709-13.483 10.324-31.981 13.979-48.01 7.7432-17.468-5.5862-34.837-12.404-49.292-23.993-26.122-20.558-50.677-45.891-61.196-78.162-4.4871-12.02-9.8372-24.628-7.2081-37.755 2.2962-11.147 7.7523-22.057 16.15-29.834 7.2328-3.7221 16.828-7.7986 24.757-4.6927 6.4527 8.2943 9.7197 18.579 15.841 27.132 5.2648 7.1959 12.035 17.644 1.2123 23.631-5.3944 5.8431-15.292 9.689-16.343 18.177 2.1578 7.4178 7.4515 13.359 11.096 20.074 12.825 20.244 32.277 35.476 53.578 45.965 9.0318 1.5507 13.028-9.9424 18.941-14.96 4.798-9.3123 15.09-8.4692 21.544-1.4015 9.7282 5.6112 19.714 10.821 29.294 16.642 1.5199 1.0494 2.2587 2.912 2.1189 4.7247z" stroke-width=".26458"/></g></svg>
