<svg width="211.67mm" height="211.67mm" version="1.1" viewBox="0 0 211.67 211.67" xmlns="http://www.w3.org/2000/svg"><g transform="translate(13.712 -75.83)"><path d="m149.63 257.39c-17.313 0-29.857-6.3558-37.63-19.067-3.5325-5.4471-6.3596-12.166-8.4799-20.157-2.1203-7.9902-3.1804-16.343-3.1804-25.06 0-18.886 4.5939-35.955 13.781-51.209 9.54-15.255 23.497-27.239 41.87-35.956l4.7694 9.8063c-10.247 4.3579-19.257 11.077-27.03 20.157-7.4197 9.0806-11.837 18.342-13.25 27.784-1.0601 4.3579-1.5902 8.5341-1.5902 12.53 0 3.6322 0.53007 7.0815 1.5902 10.35 7.7731-8.7159 18.02-13.074 30.74-13.074 12.367 0 22.437 3.8127 30.21 11.439 7.7731 7.2645 11.66 17.433 11.66 30.508 0 12.348-4.0639 22.517-12.19 30.507-8.1265 7.6267-18.55 11.441-31.27 11.441zm-109.18 0c-17.313 0-29.857-6.3558-37.63-19.067-3.5338-5.4471-6.3596-12.166-8.4799-20.157-2.1203-7.9902-3.1804-16.343-3.1804-25.06 0-18.886 4.5939-35.955 13.781-51.209 9.54-15.255 23.496-27.239 41.87-35.956l4.7694 9.8063c-10.247 4.3579-19.257 11.077-27.03 20.157-7.4197 9.0806-11.837 18.342-13.25 27.784-1.0601 4.3579-1.5902 8.5341-1.5902 12.53 0 3.6322 0.53007 7.0815 1.5902 10.35 7.7731-8.7159 18.02-13.074 30.74-13.074 12.367 0 22.437 3.8127 30.21 11.439 7.7731 7.2645 11.66 17.433 11.66 30.508 0 12.348-4.0639 22.517-12.19 30.507-8.1265 7.6267-18.55 11.441-31.27 11.441z" stroke-width="12.621"/></g></svg>
