<svg width="211.67mm" height="211.67mm" version="1.1" viewBox="0 0 211.67 211.67" xmlns="http://www.w3.org/2000/svg"><g transform="translate(13.712 -75.83)"><path d="m33.38 77.69v91.013h-22.999v35.959h22.999v16.921h-22.767v35.959h22.767v28.095h44.093v-28.095h49.134v-35.959h-49.134v-16.787h18.917c25.792 0 42.483-5.9264 56.422-17.779 14.034-11.853 21.05-25.794 21.05-48.172 0-21.525-6.5902-33.988-19.771-44.798-13.086-10.905-29.065-16.357-54.288-16.357zm44.093 36.128h20.055c12.043 0 17.686 2.4654 23.28 7.3962 5.6894 4.9308 8.5344 8.8597 8.5344 19.195 0 10.241-3.3664 14.889-10.099 20.294-6.7325 5.3101-13.704 7.9651-27.263 7.9651h-14.508z"/></g></svg>
