<svg width="800" height="800" version="1.1" viewBox="0 0 800 800" xmlns="http://www.w3.org/2000/svg"><path d="m207.91 0v297.62h-75.208v117.59h75.208v55.333h-74.45v117.59h74.45v91.872h144.19v-91.872h160.67v-117.59h-160.67v-54.895h61.86c84.341 0 138.92-19.38 184.5-58.138 45.892-38.76 68.835-84.348 68.835-157.53 0-70.388-21.55-111.14-64.652-146.49-42.792-35.66-95.044-53.488-177.53-53.488zm144.19 118.14h65.581c39.381 0 57.834 8.062 76.127 24.186 18.605 16.124 27.908 28.972 27.908 62.769 0 33.489-11.008 48.688-33.024 66.363-22.016 17.364-44.813 26.046-89.152 26.046h-47.442z" stroke-width="3.2701"/></svg>
