<svg width="211.67mm" height="211.67mm" version="1.1" viewBox="0 0 211.67 211.67" xmlns="http://www.w3.org/2000/svg"><g transform="translate(13.712 -75.83)"><path d="m92.122 75.83a105.83 105.83 0 0 0-105.83 105.83 105.83 105.83 0 0 0 105.83 105.83 105.83 105.83 0 0 0 105.83-105.83 105.83 105.83 0 0 0-105.83-105.83zm56.696 45.372c6.2623 0 11.339 5.0768 11.339 11.339 0 6.2625-5.077 11.339-11.339 11.339-6.2623 0-11.339-5.0768-11.339-11.339 0-6.2626 5.077-11.339 11.339-11.339zm-29.574 22.664c4.8147 0 8.6646 0.48077 11.753 1.3584 3.0888 1.0088 5.6855 2.5013 8.0025 4.6066 2.1802 2.2368 3.7282 4.7383 4.6361 7.5891 0.90866 2.8946 1.4027 6.6173 1.4027 11.354v6.2307c0 7.9821-1.4057 13.99-4.267 17.718-2.8613 3.7279-7.5028 6.1074-13.953 7.1166l20.803 27.182h-24.111l-18.855-27.064-43.881 0.0151v27.019h-21.571v-83.111zm-58.468 18.338v19.43h55.013c2.952 0 5.0383-0.39232 6.0831-1.2254 1.0447-0.8772 1.6832-2.5053 1.6832-5.0052v-6.969c0-2.3683-0.63849-3.9951-1.6832-4.8723-1.0447-0.87712-3.1311-1.3584-6.0831-1.3584z" stroke-width="7.5595"/></g></svg>
