<svg width="211.67mm" height="211.67mm" version="1.1" viewBox="0 0 211.67 211.67" xmlns="http://www.w3.org/2000/svg"><g transform="translate(13.712 -75.83)"><path d="m92.122 75.83a105.83 105.83 0 0 0-105.83 105.83 105.83 105.83 0 0 0 105.83 105.83 105.83 105.83 0 0 0 105.83-105.83 105.83 105.83 0 0 0-105.83-105.83zm58.893 49.303c1.1404-0.0201 3.6902 0.26228 5.3418 1.6025 1.3946 1.1316 1.7786 2.6612 1.9622 3.7341s0.41222 3.5168 0.23048 5.4265c-2.0746 21.798-11.051 74.696-15.618 99.11-1.9324 10.33-5.7375 13.795-9.4212 14.134-8.0054 0.73669-14.084-5.2909-21.838-10.374-12.133-7.9533-18.987-12.904-30.765-20.665-13.61-8.9691-4.7872-13.898 2.9693-21.955 2.0299-2.1084 37.302-34.191 37.985-37.101 0.0854-0.364 0.16478-1.7212-0.6413-2.4376-0.80603-0.71646-1.9956-0.47132-2.8541-0.27647-1.2169 0.2762-20.599 13.087-58.147 38.433-5.5017 3.7778-10.485 5.6186-14.95 5.5221-4.9221-0.10635-14.39-2.783-21.428-5.071-8.6331-2.8062-15.495-4.2904-14.897-9.0563 0.3112-2.4824 3.7294-5.021 10.255-7.6161 40.187-17.509 66.985-29.051 80.394-34.628 38.283-15.923 46.238-18.69 51.423-18.781z" stroke-width=".26458"/></g></svg>
