<svg width="800" height="800" version="1.1" viewBox="0 0 800 800" xmlns="http://www.w3.org/2000/svg"><path d="m400 0.0032126c-67.245 0-132.98 19.941-188.89 57.299-55.911 37.359-99.493 90.459-125.23 152.59-25.734 62.127-32.466 130.49-19.348 196.44 13.119 65.954 45.499 126.54 93.051 174.08 47.549 47.549 108.13 79.931 174.08 93.048 65.954 13.121 134.32 6.3859 196.44-19.346 62.127-25.735 115.23-69.314 152.59-125.23 37.359-55.914 57.299-121.65 57.299-188.89-0.0958-90.144-35.948-176.57-99.689-240.31-63.743-63.743-150.17-99.592-240.31-99.689zm0 627.7c-56.901 0-112.52-16.873-159.83-48.484-47.311-31.614-84.185-76.542-105.96-129.11-21.775-52.57-27.472-110.41-16.371-166.22 11.101-55.808 38.499-107.07 78.736-147.3 40.234-40.234 91.497-67.634 147.3-78.736 55.808-11.101 113.65-5.4032 166.22 16.371 52.57 21.775 97.501 58.648 129.11 105.96 31.611 47.311 48.484 102.93 48.484 159.83-0.0864 76.276-30.424 149.4-84.362 203.33-53.932 53.935-127.06 84.275-203.33 84.362zm209.23-287.69c0 6.9359-2.754 13.588-7.6594 18.493s-11.557 7.6622-18.493 7.6622h-183.08c-6.9359 0-13.588-2.7571-18.493-7.6622-4.9052-4.9052-7.6622-11.557-7.6622-18.493v-183.08c0-6.9362 2.7571-13.588 7.6622-18.494 4.9052-4.9046 11.557-7.6603 18.493-7.6603 6.9359 0 13.588 2.7555 18.493 7.6603 4.9052 4.9049 7.6622 11.557 7.6622 18.494v156.92h156.92c6.9359 0 13.588 2.7571 18.493 7.6622 4.9052 4.9052 7.6594 11.557 7.6594 18.493z" stroke-width="9.6214"/></svg>
