<svg width="211.67mm" height="211.67mm" version="1.1" viewBox="0 0 211.67 211.67" xmlns="http://www.w3.org/2000/svg"><g transform="translate(13.712 -75.83)"><path d="m92.122 75.83a105.83 105.83 0 0 0-105.83 105.83 105.83 105.83 0 0 0 105.83 105.83 105.83 105.83 0 0 0 105.83-105.83 105.83 105.83 0 0 0-105.83-105.83zm-73.505 66.057h17.383c4.4437 0 6.1234 1.9476 7.7897 6.7613 8.5041 24.766 22.839 46.408 28.733 46.408 2.2102 0 3.221-1.0228 3.221-6.6353v-25.6c-0.64566-11.787-6.9071-12.748-6.9071-16.937 0-1.9445 1.661-3.9961 4.4235-3.9961h27.327c3.6848 0 4.9666 1.972 4.9666 6.3924v34.438c0 3.6828 1.6012 4.9666 2.7063 4.9666 2.2107 0 4.0572-1.2842 8.1101-5.3356 12.526-13.997 21.36-35.543 21.36-35.543 1.1056-2.5777 3.1456-4.918 7.5665-4.918h17.384c5.2582 0 6.3725 2.7085 5.2674 6.3924-2.2107 10.129-23.398 39.957-23.398 39.957-1.8422 2.9463-2.5787 4.4263 0 7.7411 1.8422 2.5787 7.918 7.7354 11.971 12.524 7.469 8.4002 13.099 15.487 14.667 20.371 1.4329 4.9007-1.0464 7.3825-6.0146 7.3825h-17.393c-6.6311 0-8.572-5.2863-20.362-17.073-10.316-9.9449-14.736-11.234-17.316-11.234-3.4996 0-4.5496 0.98999-4.5496 5.9568v15.588c0 4.2773-1.3644 6.7618-12.417 6.7618-18.421 0-38.665-11.182-53.033-31.808-21.552-30.203-27.453-53.037-27.453-57.641 0-2.5777 0.99809-4.918 5.966-4.918z" stroke-width=".26458"/></g></svg>
