<svg width="211.67mm" height="211.67mm" version="1.1" viewBox="0 0 211.67 211.67" xmlns="http://www.w3.org/2000/svg"><g transform="translate(13.712 -75.83)"><path d="m92.122 75.83a105.83 105.83 0 0 0-105.83 105.83 105.83 105.83 0 0 0 105.83 105.83 105.83 105.83 0 0 0 105.83-105.83 105.83 105.83 0 0 0-105.83-105.83zm0 60.476s37.87 1e-3 47.336 2.7758c5.1805 1.4946 9.2662 5.8628 10.66 11.413 2.5914 10.138 2.4804 31.272 2.4804 31.272s0.01 21.015-2.4804 31.154c-1.3955 5.5494-5.4788 9.9341-10.66 11.428-9.4653 2.6685-47.336 2.6724-47.336 2.6724 0 0-37.757-1e-3 -47.321-2.7758-5.1814-1.4945-9.2649-5.8784-10.66-11.428-2.4907-10.032-2.4953-31.154-2.4953-31.154 0 0 0.0045-21.03 2.4953-31.168 1.3943-5.5493 5.5792-10.038 10.66-11.531 9.4651-2.6689 47.321-2.6576 47.321-2.6576zm-11.339 26.458v37.798l30.238-18.795z" stroke-width="7.5595"/></g></svg>
